<svg xmlns="http://www.w3.org/2000/svg" viewBox="0 0 204.67 178.39"><defs><style>.cls-1{fill:#d6336c;}.cls-2{fill:#f76707;}.cls-3{fill:#f59f00;}.cls-4{fill:#74b816;}.cls-5{fill:#4263eb;}.cls-6{fill:#0ca678;}.cls-7{fill:#ced4da;}.cls-8{fill:#868e96;}</style></defs><title>Asset 1</title><g id="Layer_2" data-name="Layer 2"><g id="Layer_2-2" data-name="Layer 2"><polygon class="cls-1" points="88.7 150 0 156.09 10.28 110.12 88.7 150"/><polygon class="cls-2" points="93.09 143.09 13.68 103.1 45.97 68.8 93.09 143.09"/><polygon class="cls-3" points="98.66 138.93 53.45 62.37 99.16 50.95 98.66 138.93"/><polygon class="cls-4" points="106.81 139.75 106.96 50.84 152.09 64.32 106.81 139.75"/><polygon class="cls-5" points="115.95 150.62 204.67 156.42 194.24 110.48 115.95 150.62"/><polygon class="cls-6" points="111.54 143.72 190.82 103.48 158.42 69.28 111.54 143.72"/><polygon class="cls-7" points="114.59 0 63.15 160.89 112.59 178.39 114.59 0"/><polygon class="cls-8" points="114.59 0 112.59 178.39 132.88 151.71 114.59 0"/><polygon class="cls-7" points="156.56 26.23 106.63 25.34 114.61 0.12 156.56 26.23"/></g></g></svg>